<svg width="15" height="15" viewBox="0 0 15 15" fill="none" xmlns="http://www.w3.org/2000/svg">
<path d="M7.46046 4.41797C5.60861 4.41797 4.07422 5.92591 4.07422 7.80421C4.07422 9.68252 5.58216 11.1905 7.46046 11.1905C9.33877 11.1905 10.8467 9.65606 10.8467 7.80421C10.8467 5.95236 9.31231 4.41797 7.46046 4.41797ZM7.46046 9.97352C6.26999 9.97352 5.29115 8.99469 5.29115 7.80421C5.29115 6.61374 6.26999 5.6349 7.46046 5.6349C8.65094 5.6349 9.62977 6.61374 9.62977 7.80421C9.62977 8.99469 8.65094 9.97352 7.46046 9.97352Z" fill="white"/>
<path d="M10.9791 5.10617C11.4028 5.10617 11.7463 4.76268 11.7463 4.33897C11.7463 3.91526 11.4028 3.57178 10.9791 3.57178C10.5554 3.57178 10.2119 3.91526 10.2119 4.33897C10.2119 4.76268 10.5554 5.10617 10.9791 5.10617Z" fill="white"/>
<path d="M12.9629 2.35468C12.2751 1.64039 11.2962 1.27002 10.1851 1.27002H4.73539C2.43381 1.27002 0.899414 2.80441 0.899414 5.106V10.5293C0.899414 11.6668 1.26978 12.6457 2.01052 13.36C2.72481 14.0478 3.67719 14.3917 4.76185 14.3917H10.1587C11.2962 14.3917 12.2486 14.0213 12.9364 13.36C13.6507 12.6721 14.0211 11.6933 14.0211 10.5557V5.106C14.0211 3.99489 13.6507 3.04251 12.9629 2.35468ZM12.8571 10.5557C12.8571 11.3758 12.5661 12.0372 12.0899 12.487C11.6137 12.9367 10.9523 13.1748 10.1587 13.1748H4.76185C3.9682 13.1748 3.30682 12.9367 2.83063 12.487C2.35444 12.0108 2.11634 11.3494 2.11634 10.5293V5.106C2.11634 4.31235 2.35444 3.65097 2.83063 3.17478C3.28037 2.72505 3.9682 2.48695 4.76185 2.48695H10.2116C11.0052 2.48695 11.6666 2.72505 12.1428 3.20124C12.5925 3.67743 12.8571 4.3388 12.8571 5.106V10.5557Z" fill="white"/>
</svg>
