<svg width="11" height="14" viewBox="0 0 11 14" fill="none" xmlns="http://www.w3.org/2000/svg">
<path d="M6.03619 0.223145C2.44156 0.223145 0.628906 2.80018 0.628906 4.94965C0.628906 6.25087 1.12156 7.40842 2.17804 7.83943C2.35134 7.91086 2.50665 7.84207 2.55692 7.65025C2.59185 7.51796 2.67466 7.183 2.71144 7.04303C2.76197 6.85333 2.74239 6.78718 2.60243 6.62129C2.2979 6.26225 2.1029 5.79711 2.1029 5.13777C2.1029 3.2259 3.5335 1.51431 5.82796 1.51431C7.85969 1.51431 8.97597 2.75573 8.97597 4.41334C8.97597 6.59509 8.0105 8.43633 6.57752 8.43633C5.78589 8.43633 5.19376 7.78201 5.3832 6.979C5.61047 6.02042 6.051 4.98643 6.051 4.29402C6.051 3.67489 5.71842 3.15843 5.03077 3.15843C4.22168 3.15843 3.5716 3.99557 3.5716 5.1166C3.5716 5.83071 3.8129 6.31384 3.8129 6.31384C3.8129 6.31384 2.98502 9.82221 2.83976 10.4366C2.55084 11.6603 2.79637 13.1599 2.81727 13.3113C2.82944 13.4012 2.9448 13.4229 2.99719 13.3552C3.07154 13.2576 4.03568 12.068 4.36296 10.879C4.45583 10.5427 4.89504 8.7996 4.89504 8.7996C5.15804 9.30125 5.92639 9.74204 6.74342 9.74204C9.1752 9.74204 10.8254 7.5251 10.8254 4.55754C10.8257 2.31308 8.9249 0.223145 6.03619 0.223145Z" fill="white"/>
</svg>
